Coordinates
version=1
nRows=4
nColumns=63
inDegrees=yes

Units are S.I. units (second, meters, Newtons, ...)
If the header above contains a line with 'inDegrees', this indicates whether rotational values are in degrees (yes) or radians (no).

endheader
time	pelvis_tilt	pelvis_list	pelvis_rotation	pelvis_tx	pelvis_ty	pelvis_tz	hip_flexion_r	hip_adduction_r	hip_rotation_r	knee_angle_r	knee_angle_r_beta	ankle_angle_r	subtalar_angle_r	mtp_angle_r	hip_flexion_l	hip_adduction_l	hip_rotation_l	knee_angle_l	knee_angle_l_beta	ankle_angle_l	subtalar_angle_l	mtp_angle_l	L5_S1_Flex_Ext	L5_S1_Lat_Bending	L5_S1_axial_rotation	L4_L5_Flex_Ext	L4_L5_Lat_Bending	L4_L5_axial_rotation	L3_L4_Flex_Ext	L3_L4_Lat_Bending	L3_L4_axial_rotation	L2_L3_Flex_Ext	L2_L3_Lat_Bending	L2_L3_axial_rotation	L1_L2_Flex_Ext	L1_L2_Lat_Bending	L1_L2_axial_rotation	L1_T12_Flex_Ext	L1_T12_Lat_Bending	L1_T12_axial_rotation	Abs_r3	Abs_r2	Abs_r1	Abs_t1	Abs_t2	neck_flexion	neck_bending	neck_rotation	arm_flex_r	arm_add_r	arm_rot_r	elbow_flex_r	pro_sup_r	wrist_flex_r	wrist_dev_r	arm_flex_l	arm_add_l	arm_rot_l	elbow_flex_l	pro_sup_l	wrist_flex_l	wrist_dev_l
      3.51666667	     -5.08922760	     -3.77017565	    100.11975139	      0.18177162	      1.12428734	      0.45333785	     -0.35724896	     -3.98982308	     -8.48989995	      0.51207022	      0.00893731	     19.31702331	     13.31759321	      0.00000000	      2.35863353	      3.97355704	      0.27400229	      3.33411741	      0.05819133	     12.55738466	      6.20603819	      0.00000000	     -0.28346387	     -0.39370375	      0.21669524	     -0.52642076	     -0.52362599	      0.23023870	     -0.46570280	     -0.95725130	      0.23023870	     -0.32397086	     -0.95725130	      0.18960834	     -0.26322455	     -0.80284069	      0.17606488	     -0.16197126	     -0.60984711	      0.16252143	     -2.02475410	     -4.45365559	      1.20519393	      0.00000000	      0.00000000	     26.71379636	     -2.03279698	     -7.05578527	      5.20579105	    -11.68047188	     90.64777131	      9.03289591	      4.37572481	     -0.87790158	    -14.70070609	      6.77080495	    -13.21302126	    168.64480244	      0.95679144	     18.52225825	    -14.34878508	     -5.09517772
      3.53333333	     -5.08976263	     -3.82752636	    100.21339148	      0.18111409	      1.12416869	      0.45406437	     -0.23187097	     -4.05872599	     -8.43316281	      0.48491303	      0.00846333	     19.49973187	     13.36827294	      0.00000000	      2.43705844	      4.03462746	      0.23382746	      3.27301503	      0.05712489	     12.71317341	      6.18805953	      0.00000000	     -0.28565720	     -0.38301968	      0.21098280	     -0.53049398	     -0.50941617	      0.22416923	     -0.46930621	     -0.93127405	      0.22416923	     -0.32647761	     -0.93127405	      0.18460995	     -0.26526127	     -0.78105373	      0.17142353	     -0.16322452	     -0.59329748	      0.15823710	     -2.04042078	     -4.33279522	      1.17342305	      0.00000000	      0.00000000	     26.67941162	     -2.06544157	     -7.00148673	      5.25930129	    -11.63236020	     90.74484954	      9.04962970	      4.44978545	     -0.90779206	    -14.65831940	      7.30083913	    -12.73830829	    168.64864430	      0.83007544	     18.53047461	    -14.41426917	     -5.12273724
      3.55000000	     -4.67279276	     -3.92770991	    100.33418690	      0.18012930	      1.12397178	      0.45509975	      0.05427838	     -3.73419464	     -9.47989303	      0.53951022	      0.00941623	     19.56044820	     14.84102355	      0.00000000	      2.88902816	      3.61210582	     -1.08278860	      3.74236431	      0.06531658	     13.42944898	      8.15621467	      0.00000000	     -0.27337938	     -0.30826530	      0.19118885	     -0.50769285	     -0.40999284	      0.20313816	     -0.44913498	     -0.74951624	      0.20313816	     -0.31244529	     -0.74951624	      0.16729025	     -0.25386009	     -0.62861459	      0.15534094	     -0.15620898	     -0.47750294	      0.14339164	     -1.95272157	     -3.48715869	      1.06333505	      0.00000000	      0.00000000	     26.92729486	     -2.73904586	     -6.07160635	      5.75366300	    -11.59878818	     97.67441754	      7.87265666	      3.61933208	     -1.31323534	    -14.32900404	      7.88447802	    -11.98287365	    169.21253570	      0.97676445	     15.76862362	    -13.89435788	     -5.07961825
      3.56666667	     -4.41265995	     -4.06569860	    100.50588345	      0.17913164	      1.12385285	      0.45586818	      0.29756598	     -3.56741947	     -9.48485686	      0.54467990	      0.00950646	     19.31341554	     14.79396560	      0.00000000	      3.20108111	      3.42537823	     -0.88252281	      3.90825664	      0.06821195	     13.45790503	      7.99516747	      0.00000000	     -0.25329242	     -0.26111800	      0.16192733	     -0.47038934	     -0.34728693	      0.17204779	     -0.41613411	     -0.63488229	      0.17204779	     -0.28948790	     -0.63488229	      0.14168642	     -0.23520734	     -0.53247182	      0.13156596	     -0.14473129	     -0.40447177	      0.12144550	     -1.80924239	     -2.95381899	      0.90059125	      0.00000000	      0.00000000	     27.02612314	     -2.90937168	     -5.35021369	      6.07757552	    -11.61150484	    102.30301935	      7.30662395	      3.86171249	     -1.91928410	    -13.73813676	      8.22002100	    -11.48285004	    166.70746884	      1.26490359	     10.22256039	    -12.77604974	     -6.34136411
